#!OML:ASF F:\VICON\USERDATA\INSTALL\rory3\rory3.ASF
:FULLY-SPECIFIED
:DEGREES
390
root 13.3508 18.4041 13.4145 213.668 -83.7638 147.291
lowerback 9.60049 -4.47161 -0.645614
upperback 0.55381 -5.95185 7.39239
thorax -3.92554 -3.01162 8.95173
lowerneck 7.84486 -18.6682 -13.2978
upperneck 32.8335 -37.8795 11.7935
head 15.5551 -18.2163 1.33616
rclavicle -1.55052e-014 -2.8625e-014
rhumerus -21.7885 -16.5936 -73.8155
rradius 32.36
rwrist 4.65147
rhand -17.1744 6.27006
rfingers 7.12502
rthumb 9.06707 -23.5151
lclavicle -1.55052e-014 -2.8625e-014
lhumerus -39.5523 3.19488 89.1472
lradius 22.7533
lwrist -11.4283
lhand -14.9895 24.8631
lfingers 7.12502
lthumb 11.1749 54.5455
rfemur -8.57027 6.03826 13.7738
rtibia 53.0475
rfoot -5.03424 5.10067
rtoes -10.9754
lfemur -6.35365 5.28931 -27.1466
ltibia 20.362
lfoot -1.13707 -2.65582
ltoes -20.3063
391
root 13.455 18.4055 13.4084 211.335 -83.524 149.728
lowerback 9.56529 -4.38561 -0.396198
upperback 0.511477 -5.81245 7.52387
thorax -3.98295 -2.94655 8.93829
lowerneck 8.06519 -18.6605 -13.2943
upperneck 32.6332 -37.895 11.9363
head 15.4588 -18.237 1.42221
rclavicle -6.87795e-014 -3.49861e-014
rhumerus -21.23 -16.5934 -73.9565
rradius 32.0935
rwrist 4.54312
rhand -17.5415 6.46159
rfingers 7.12502
rthumb 8.71278 -23.3386
lclavicle -6.87795e-014 -3.49861e-014
lhumerus -40.0029 3.76242 88.7606
lradius 22.3614
lwrist -11.9375
lhand -15.3475 25.5772
lfingers 7.12502
lthumb 10.8296 55.278
rfemur -7.48066 6.82024 13.9868
rtibia 51.5216
rfoot -4.79728 5.88528
rtoes -10.2837
lfemur -6.9971 5.34602 -26.979
ltibia 20.6826
lfoot -1.03141 -2.63715
ltoes -20.4099
392
root 13.5616 18.407 13.4015 209.208 -83.325 151.979
lowerback 9.5625 -4.30965 -0.124747
upperback 0.439245 -5.68071 7.65882
thorax -4.09006 -2.88361 8.92289
lowerneck 8.12164 -18.6423 -13.2724
upperneck 32.6939 -37.9353 11.9093
head 15.4742 -18.2549 1.41046
rclavicle 1.16885e-013 -3.49861e-014
rhumerus -20.839 -16.587 -74.1013
rradius 32.0657
rwrist 4.57096
rhand -15.3511 7.44735
rfingers 7.12502
rthumb 10.8261 -22.2536
lclavicle 1.16885e-013 -3.49861e-014
lhumerus -40.4772 4.31816 88.227
lradius 21.9905
lwrist -12.1896
lhand -12.6736 23.5488
lfingers 7.12502
lthumb 13.4078 53.0973
rfemur -6.43378 7.45826 14.2379
rtibia 49.9064
rfoot -4.56503 6.52304
rtoes -11.0517
lfemur -7.65927 5.24572 -26.7702
ltibia 20.9767
lfoot -0.917039 -2.54292
ltoes -20.1553
393
root 13.6673 18.4035 13.3981 207.504 -83.0143 153.81
lowerback 9.52432 -4.21059 0.18436
upperback 0.373367 -5.51385 7.71311
thorax -4.18701 -2.80284 8.78841
lowerneck 8.05449 -18.5917 -13.2648
upperneck 32.9722 -38.0049 11.8169
head 15.6127 -18.273 1.34171
rclavicle 6.75868e-015 6.04305e-014
rhumerus -20.4982 -16.4508 -74.3176
rradius 32.095
rwrist 4.56502
rhand -16.034 6.07623
rfingers 7.12502
rthumb 10.1674 -23.6581
lclavicle 6.75868e-015 6.04305e-014
lhumerus -40.8881 5.20023 87.3463
lradius 21.5653
lwrist -12.4605
lhand -15.2778 26.1152
lfingers 7.12502
lthumb 10.8969 55.8124
rfemur -5.42297 7.99185 14.3328
rtibia 48.2138
rfoot -4.37213 7.17394
rtoes -11.6414
lfemur -8.31135 5.20423 -26.6596
ltibia 21.263
lfoot -0.81278 -2.42258
ltoes -19.7975
394
root 13.7734 18.4001 13.3986 205.576 -82.5985 155.835
lowerback 9.55294 -4.04126 0.51998
upperback 0.335455 -5.2492 7.75231
thorax -4.30794 -2.6741 8.61598
lowerneck 8.01101 -18.6169 -13.1348
upperneck 33.0736 -38.1061 11.7747
head 15.6499 -18.2949 1.28789
rclavicle 2.38542e-015 2.22639e-014
rhumerus -20.1889 -16.3374 -74.4943
rradius 32.1306
rwrist 4.55349
rhand -17.5796 5.01772
rfingers 7.12502
rthumb 8.67601 -24.784
lclavicle 2.38542e-015 2.22639e-014
lhumerus -41.1389 6.60317 86.0514
lradius 21.0364
lwrist -12.7862
lhand -16.2651 25.7104
lfingers 7.12502
lthumb 9.94444 55.4555
rfemur -4.42968 8.54087 14.3827
rtibia 46.4239
rfoot -4.07093 7.82066
rtoes -11.9209
lfemur -8.94059 5.50754 -26.5712
ltibia 21.558
lfoot -0.794195 -2.55583
ltoes -20.564
395
root 13.8868 18.4032 13.3958 203.618 -82.3233 157.943
lowerback 9.57579 -3.91103 0.860071
upperback 0.317676 -5.03994 7.84862
thorax -4.38929 -2.57674 8.50717
lowerneck 7.92195 -18.6408 -12.9385
upperneck 33.0704 -38.1763 11.827
head 15.6492 -18.2891 1.26635
rclavicle 2.26615e-014 1.27222e-014
rhumerus -19.852 -16.4172 -74.692
rradius 32.2453
rwrist 4.67644
rhand -17.7999 6.0649
rfingers 7.12502
rthumb 8.46348 -23.7455
lclavicle 2.26615e-014 1.27222e-014
lhumerus -41.3084 7.7134 84.9914
lradius 20.5904
lwrist -13.0125
lhand -16.0507 25.1265
lfingers 7.12502
lthumb 10.1513 54.8616
rfemur -3.49439 9.31991 14.7017
rtibia 44.5448
rfoot -3.39301 7.9882
rtoes -11.5214
lfemur -9.65251 5.65361 -26.3717
ltibia 21.8556
lfoot -0.637359 -2.56742
ltoes -21.3073
